<svg xmlns="http://www.w3.org/2000/svg" viewBox="0 0 108 108" role="img" aria-label="Rizq logo">
  <title>Rizq</title>
  <defs>
    <linearGradient id="b" gradientUnits="userSpaceOnUse" x1="24.7" y1="27.0" x2="87.9" y2="78.3"><stop offset="0" stop-color="#34704E"/><stop offset="1" stop-color="#1F5339"/></linearGradient>
  </defs>
  <rect width="108" height="108" rx="24" fill="#F6EFDA"/>
  <path d="M 19.62,20.29 c -0.19,0.03 -0.24,0.05 -0.28,0.14 c -0.07,0.16 -0.06,29.54 0.01,30.72 c 0.05,0.85 0.17,1.96 0.25,2.24 c 0.02,0.08 0.05,0.24 0.06,0.37 c 0.02,0.13 0.06,0.38 0.1,0.56 c 0.04,0.18 0.09,0.41 0.11,0.5 c 0.47,2.21 1.83,5.48 3.11,7.46 c 1.14,1.76 1.99,2.85 3.39,4.32 c 4.72,4.97 12.36,7.73 19.28,6.97 c 1.53,-0.17 2.36,-0.32 3.62,-0.65 c 2.93,-0.78 6.07,-2.35 8.24,-4.12 c 0.22,-0.19 0.53,-0.43 0.69,-0.55 c 0.36,-0.28 1.56,-1.45 2.14,-2.08 c 1.1,-1.21 1.64,-1.95 2.71,-3.71 c 1.2,-1.97 2.21,-4.86 2.59,-7.41 c 0.09,-0.62 -0.01,-0.73 -0.22,-0.25 c -2.81,6.41 -10.12,10.29 -16.4,8.69 c -0.5,-0.13 -0.45,1.1 -0.44,-12.42 c 0,-11.32 0.01,-11.12 -0.14,-11.19 c -0.17,-0.08 -7.22,-0.02 -7.33,0.07 c -0.09,0.07 -0.09,0.07 -0.1,8.87 c -0.02,7.07 -0.03,8.81 -0.07,8.85 c -0.25,0.25 -1.41,-2.03 -1.77,-3.47 c -0.05,-0.22 -0.12,-0.48 -0.16,-0.59 c -0.07,-0.23 -0.22,-1.11 -0.29,-1.67 c -0.04,-0.31 -0.05,-2.8 -0.06,-13.06 c -0.01,-12.67 -0.01,-12.67 -0.09,-12.74 c -0.15,-0.12 -7.52,-0.1 -7.66,0.02 c -0.1,0.09 -0.16,23.59 -0.06,25.45 c 0.19,3.69 1.64,7.26 4.05,10.01 c 1.99,2.28 5.48,4.46 8.14,5.09 c 0.15,0.03 0.52,0.12 0.81,0.2 c 5.7,1.37 11.63,-0.01 16.12,-3.74 c 0.56,-0.47 0.85,-0.73 1.48,-1.33 c 0.41,-0.39 0.26,-0.09 -0.29,0.57 c -2.94,3.53 -7.39,5.84 -12.26,6.35 c -0.97,0.1 -3.12,0.05 -4.09,-0.1 c -1.58,-0.25 -2.46,-0.46 -3.7,-0.89 c -3.18,-1.11 -5.73,-2.89 -8.25,-5.78 c -1.78,-2.03 -3.47,-5.55 -3.86,-8.06 c -0.02,-0.09 -0.05,-0.28 -0.08,-0.43 c -0.05,-0.25 -0.11,-0.62 -0.22,-1.49 c -0.03,-0.22 -0.05,-5.33 -0.05,-15.95 c -0.02,-15.13 -0.02,-15.63 -0.09,-15.69 c -0.06,-0.06 -8.58,-0.12 -8.94,-0.07 z" fill="#CBAA60"/>
  <path d="M 76.61,20.85 c -0.03,0.05 -0.26,0.43 -0.5,0.85 c -0.24,0.42 -0.62,1.09 -0.85,1.49 c -0.23,0.4 -0.89,1.56 -1.47,2.57 c -0.57,1.01 -1.19,2.09 -1.37,2.38 c -0.17,0.3 -0.42,0.72 -0.54,0.95 c -0.45,0.83 -1.29,2.32 -1.98,3.51 c -0.49,0.85 -0.88,1.53 -1.58,2.79 c -0.28,0.49 -0.85,1.52 -1.29,2.29 c -0.43,0.77 -0.84,1.48 -0.9,1.59 c -0.06,0.1 -0.33,0.58 -0.59,1.05 c -0.27,0.47 -0.84,1.48 -1.27,2.25 c -0.43,0.77 -1.54,2.72 -2.47,4.35 c -0.92,1.62 -1.68,2.99 -1.68,3.03 c 0,0.17 -0.08,0.17 3.57,0.17 c 3.48,0 3.48,0 3.58,0.1 c 0.16,0.15 0.13,2.46 -0.04,3.76 c -0.03,0.23 -0.07,0.56 -0.08,0.72 c -0.02,0.16 -0.05,0.42 -0.08,0.58 c -0.03,0.16 -0.1,0.53 -0.16,0.83 c -0.83,4.41 -2.89,8.31 -6.2,11.72 c -4.75,4.9 -11.54,7.59 -18.44,7.29 c -0.45,-0.02 -0.82,-0.04 -0.83,-0.05 c -0.02,-0.01 -0.27,-0.03 -0.57,-0.06 c -0.3,-0.02 -0.64,-0.06 -0.76,-0.08 c -0.12,-0.02 -0.37,-0.06 -0.56,-0.09 c -7.15,-1.02 -14.03,-5.83 -17.78,-12.42 c -0.22,-0.38 -0.85,-1.64 -0.85,-1.7 c 0,-0.06 -0.45,-1.03 -0.49,-1.07 c -0.16,-0.14 0.12,1.04 0.64,2.66 c 1.16,3.61 3.52,7.9 5.91,10.77 c 1.59,1.9 3.17,3.45 5.29,5.16 c 1.04,0.84 2.9,2.08 4.43,2.95 c 2.94,1.67 6.71,3 10.24,3.61 c 0.26,0.04 0.61,0.11 0.79,0.14 c 0.18,0.03 0.52,0.08 0.76,0.1 c 0.24,0.02 0.52,0.06 0.62,0.08 c 1.35,0.26 5.8,0.25 7.54,-0.02 c 0.2,-0.03 0.47,-0.07 0.6,-0.08 c 0.6,-0.06 2.07,-0.34 3.26,-0.62 c 3.53,-0.84 7.74,-2.7 10.7,-4.74 c 3.24,-2.23 6.41,-5.25 8.27,-7.87 c 3.01,-4.25 4.82,-8.21 5.79,-12.67 c 0.04,-0.18 0.11,-0.52 0.17,-0.74 c 0.05,-0.23 0.1,-0.5 0.12,-0.6 c 0.02,-0.1 0.05,-0.3 0.08,-0.44 c 0.07,-0.34 0.16,-0.97 0.31,-2.25 c 0.1,-0.91 0.15,-1.84 0.15,-3.35 c 0,-1.47 0,-1.47 0.1,-1.54 c 0.09,-0.07 0.21,-0.07 3.53,-0.07 c 4.15,0 3.76,0.09 3.28,-0.76 c -0.56,-0.99 -0.88,-1.56 -1.24,-2.18 c -0.2,-0.35 -0.51,-0.9 -0.69,-1.22 c -0.18,-0.33 -0.51,-0.91 -0.74,-1.31 c -0.23,-0.4 -0.63,-1.09 -0.88,-1.55 c -1.18,-2.12 -1.62,-2.9 -1.86,-3.3 c -0.4,-0.69 -0.67,-1.16 -1.11,-1.95 c -0.72,-1.31 -1.07,-1.92 -1.51,-2.67 c -0.5,-0.87 -0.93,-1.62 -1.29,-2.28 c -0.14,-0.27 -0.39,-0.7 -0.54,-0.97 c -0.48,-0.83 -0.57,-1 -1.22,-2.15 c -0.56,-1 -1.04,-1.84 -1.77,-3.12 c -0.13,-0.22 -0.55,-0.97 -0.95,-1.67 c -0.39,-0.69 -1.01,-1.79 -1.38,-2.44 c -0.37,-0.65 -0.71,-1.26 -0.76,-1.36 c -0.2,-0.41 -0.36,-0.52 -0.48,-0.34 z" fill="url(#b)"/>
  <path d="M 56.37,28.83 c -0.03,0.11 -0.06,0.23 -0.06,0.27 c 0,0.11 -0.22,0.92 -0.39,1.43 c -0.67,2.02 -1.41,2.64 -4.06,3.33 c -0.94,0.25 -0.94,0.25 0.23,0.54 c 2.57,0.65 3.5,1.59 4.06,4.15 c 0.29,1.33 0.35,1.33 0.65,0.08 c 0.6,-2.52 1.56,-3.59 3.73,-4.13 c 1.62,-0.4 1.62,-0.4 0.45,-0.68 c -2.74,-0.67 -3.54,-1.49 -4.21,-4.28 c -0.24,-1.02 -0.29,-1.1 -0.41,-0.71 z" fill="#34704E"/>
  <path d="M 63.11,20.02 c -0.03,0.02 -0.1,0.22 -0.16,0.47 c -0.39,1.48 -0.98,2.09 -2.32,2.41 c -0.52,0.12 -0.55,0.2 -0.12,0.32 c 1.5,0.42 1.98,0.89 2.41,2.36 c 0.2,0.67 0.25,0.71 0.37,0.29 c 0.51,-1.79 0.93,-2.25 2.37,-2.61 c 0.61,-0.15 0.6,-0.22 -0.05,-0.41 c -1.41,-0.41 -1.83,-0.83 -2.24,-2.27 c -0.16,-0.55 -0.19,-0.61 -0.27,-0.56 z" fill="#34704E"/>
  <path d="M 45.57,25.13 c -0.02,0.06 -0.07,0.22 -0.1,0.36 c -0.33,1.45 -0.91,2.08 -2.22,2.43 c -0.67,0.17 -0.66,0.22 0.03,0.42 c 1.33,0.38 1.78,0.88 2.2,2.38 c 0.15,0.53 0.23,0.59 0.33,0.2 c 0.28,-1.14 0.61,-1.78 1.1,-2.09 c 0.41,-0.27 1.25,-0.59 1.54,-0.59 c 0.24,0 0.22,-0.21 -0.02,-0.25 c -1.52,-0.28 -2.21,-0.95 -2.56,-2.48 c -0.07,-0.29 -0.15,-0.48 -0.21,-0.48 c -0.02,0 -0.05,0.05 -0.08,0.1 z" fill="#34704E"/>
</svg>
